<svg xmlns="http://www.w3.org/2000/svg" xmlns:xlink="http://www.w3.org/1999/xlink" version="1.1" baseProfile="full" width="1536" height="746" style="user-select: none; position: absolute; left: 0px; top: 0px;"><g><rect width="1536" height="746" x="0" y="0" id="0" fill="#100C2A" fill-opacity="1"></rect></g><g><defs><clipPath id="zr2323-clip-0"><path d="M 152 59 L 1383 59 L 1383 677 L 152 677 L 152 59 Z" fill="#000" fill-opacity="1" stroke="none"></path></clipPath></defs><path d="M 153.6 676.5 L 1382.4 676.5" fill="none" stroke="#484753" stroke-width="1" paint-order="fill" stroke-opacity="1" stroke-dasharray="none" stroke-linecap="butt" stroke-miterlimit="10"></path><path d="M 153.6 522.5 L 1382.4 522.5" fill="none" stroke="#484753" stroke-width="1" paint-order="fill" stroke-opacity="1" stroke-dasharray="none" stroke-linecap="butt" stroke-miterlimit="10"></path><path d="M 153.6 368.5 L 1382.4 368.5" fill="none" stroke="#484753" stroke-width="1" paint-order="fill" stroke-opacity="1" stroke-dasharray="none" stroke-linecap="butt" stroke-miterlimit="10"></path><path d="M 153.6 214.5 L 1382.4 214.5" fill="none" stroke="#484753" stroke-width="1" paint-order="fill" stroke-opacity="1" stroke-dasharray="none" stroke-linecap="butt" stroke-miterlimit="10"></path><path d="M 153.6 60.5 L 1382.4 60.5" fill="none" stroke="#484753" stroke-width="1" paint-order="fill" stroke-opacity="1" stroke-dasharray="none" stroke-linecap="butt" stroke-miterlimit="10"></path><path d="M 153.6 676.5 L 1382.4 676.5" fill="none" stroke="#B9B8CE" stroke-width="1" paint-order="fill" stroke-opacity="1" stroke-dasharray="none" stroke-linecap="round" stroke-miterlimit="10"></path><path d="M 153.5 676 L 153.5 681" fill="none" stroke="#B9B8CE" stroke-width="1" paint-order="fill" stroke-opacity="1" stroke-dasharray="none" stroke-linecap="butt" stroke-miterlimit="10"></path><path d="M 183.5 676 L 183.5 681" fill="none" stroke="#B9B8CE" stroke-width="1" paint-order="fill" stroke-opacity="1" stroke-dasharray="none" stroke-linecap="butt" stroke-miterlimit="10"></path><path d="M 213.5 676 L 213.5 681" fill="none" stroke="#B9B8CE" stroke-width="1" paint-order="fill" stroke-opacity="1" stroke-dasharray="none" stroke-linecap="butt" stroke-miterlimit="10"></path><path d="M 243.5 676 L 243.5 681" fill="none" stroke="#B9B8CE" stroke-width="1" paint-order="fill" stroke-opacity="1" stroke-dasharray="none" stroke-linecap="butt" stroke-miterlimit="10"></path><path d="M 273.5 676 L 273.5 681" fill="none" stroke="#B9B8CE" stroke-width="1" paint-order="fill" stroke-opacity="1" stroke-dasharray="none" stroke-linecap="butt" stroke-miterlimit="10"></path><path d="M 303.5 676 L 303.5 681" fill="none" stroke="#B9B8CE" stroke-width="1" paint-order="fill" stroke-opacity="1" stroke-dasharray="none" stroke-linecap="butt" stroke-miterlimit="10"></path><path d="M 333.5 676 L 333.5 681" fill="none" stroke="#B9B8CE" stroke-width="1" paint-order="fill" stroke-opacity="1" stroke-dasharray="none" stroke-linecap="butt" stroke-miterlimit="10"></path><path d="M 363.5 676 L 363.5 681" fill="none" stroke="#B9B8CE" stroke-width="1" paint-order="fill" stroke-opacity="1" stroke-dasharray="none" stroke-linecap="butt" stroke-miterlimit="10"></path><path d="M 393.5 676 L 393.5 681" fill="none" stroke="#B9B8CE" stroke-width="1" paint-order="fill" stroke-opacity="1" stroke-dasharray="none" stroke-linecap="butt" stroke-miterlimit="10"></path><path d="M 423.5 676 L 423.5 681" fill="none" stroke="#B9B8CE" stroke-width="1" paint-order="fill" stroke-opacity="1" stroke-dasharray="none" stroke-linecap="butt" stroke-miterlimit="10"></path><path d="M 453.5 676 L 453.5 681" fill="none" stroke="#B9B8CE" stroke-width="1" paint-order="fill" stroke-opacity="1" stroke-dasharray="none" stroke-linecap="butt" stroke-miterlimit="10"></path><path d="M 483.5 676 L 483.5 681" fill="none" stroke="#B9B8CE" stroke-width="1" paint-order="fill" stroke-opacity="1" stroke-dasharray="none" stroke-linecap="butt" stroke-miterlimit="10"></path><path d="M 513.5 676 L 513.5 681" fill="none" stroke="#B9B8CE" stroke-width="1" paint-order="fill" stroke-opacity="1" stroke-dasharray="none" stroke-linecap="butt" stroke-miterlimit="10"></path><path d="M 543.5 676 L 543.5 681" fill="none" stroke="#B9B8CE" stroke-width="1" paint-order="fill" stroke-opacity="1" stroke-dasharray="none" stroke-linecap="butt" stroke-miterlimit="10"></path><path d="M 573.5 676 L 573.5 681" fill="none" stroke="#B9B8CE" stroke-width="1" paint-order="fill" stroke-opacity="1" stroke-dasharray="none" stroke-linecap="butt" stroke-miterlimit="10"></path><path d="M 603.5 676 L 603.5 681" fill="none" stroke="#B9B8CE" stroke-width="1" paint-order="fill" stroke-opacity="1" stroke-dasharray="none" stroke-linecap="butt" stroke-miterlimit="10"></path><path d="M 633.5 676 L 633.5 681" fill="none" stroke="#B9B8CE" stroke-width="1" paint-order="fill" stroke-opacity="1" stroke-dasharray="none" stroke-linecap="butt" stroke-miterlimit="10"></path><path d="M 663.5 676 L 663.5 681" fill="none" stroke="#B9B8CE" stroke-width="1" paint-order="fill" stroke-opacity="1" stroke-dasharray="none" stroke-linecap="butt" stroke-miterlimit="10"></path><path d="M 693.5 676 L 693.5 681" fill="none" stroke="#B9B8CE" stroke-width="1" paint-order="fill" stroke-opacity="1" stroke-dasharray="none" stroke-linecap="butt" stroke-miterlimit="10"></path><path d="M 723.5 676 L 723.5 681" fill="none" stroke="#B9B8CE" stroke-width="1" paint-order="fill" stroke-opacity="1" stroke-dasharray="none" stroke-linecap="butt" stroke-miterlimit="10"></path><path d="M 753.5 676 L 753.5 681" fill="none" stroke="#B9B8CE" stroke-width="1" paint-order="fill" stroke-opacity="1" stroke-dasharray="none" stroke-linecap="butt" stroke-miterlimit="10"></path><path d="M 783.5 676 L 783.5 681" fill="none" stroke="#B9B8CE" stroke-width="1" paint-order="fill" stroke-opacity="1" stroke-dasharray="none" stroke-linecap="butt" stroke-miterlimit="10"></path><path d="M 813.5 676 L 813.5 681" fill="none" stroke="#B9B8CE" stroke-width="1" paint-order="fill" stroke-opacity="1" stroke-dasharray="none" stroke-linecap="butt" stroke-miterlimit="10"></path><path d="M 843.5 676 L 843.5 681" fill="none" stroke="#B9B8CE" stroke-width="1" paint-order="fill" stroke-opacity="1" stroke-dasharray="none" stroke-linecap="butt" stroke-miterlimit="10"></path><path d="M 873.5 676 L 873.5 681" fill="none" stroke="#B9B8CE" stroke-width="1" paint-order="fill" stroke-opacity="1" stroke-dasharray="none" stroke-linecap="butt" stroke-miterlimit="10"></path><path d="M 903.5 676 L 903.5 681" fill="none" stroke="#B9B8CE" stroke-width="1" paint-order="fill" stroke-opacity="1" stroke-dasharray="none" stroke-linecap="butt" stroke-miterlimit="10"></path><path d="M 933.5 676 L 933.5 681" fill="none" stroke="#B9B8CE" stroke-width="1" paint-order="fill" stroke-opacity="1" stroke-dasharray="none" stroke-linecap="butt" stroke-miterlimit="10"></path><path d="M 963.5 676 L 963.5 681" fill="none" stroke="#B9B8CE" stroke-width="1" paint-order="fill" stroke-opacity="1" stroke-dasharray="none" stroke-linecap="butt" stroke-miterlimit="10"></path><path d="M 993.5 676 L 993.5 681" fill="none" stroke="#B9B8CE" stroke-width="1" paint-order="fill" stroke-opacity="1" stroke-dasharray="none" stroke-linecap="butt" stroke-miterlimit="10"></path><path d="M 1023.5 676 L 1023.5 681" fill="none" stroke="#B9B8CE" stroke-width="1" paint-order="fill" stroke-opacity="1" stroke-dasharray="none" stroke-linecap="butt" stroke-miterlimit="10"></path><path d="M 1052.5 676 L 1052.5 681" fill="none" stroke="#B9B8CE" stroke-width="1" paint-order="fill" stroke-opacity="1" stroke-dasharray="none" stroke-linecap="butt" stroke-miterlimit="10"></path><path d="M 1082.5 676 L 1082.5 681" fill="none" stroke="#B9B8CE" stroke-width="1" paint-order="fill" stroke-opacity="1" stroke-dasharray="none" stroke-linecap="butt" stroke-miterlimit="10"></path><path d="M 1112.5 676 L 1112.5 681" fill="none" stroke="#B9B8CE" stroke-width="1" paint-order="fill" stroke-opacity="1" stroke-dasharray="none" stroke-linecap="butt" stroke-miterlimit="10"></path><path d="M 1142.5 676 L 1142.5 681" fill="none" stroke="#B9B8CE" stroke-width="1" paint-order="fill" stroke-opacity="1" stroke-dasharray="none" stroke-linecap="butt" stroke-miterlimit="10"></path><path d="M 1172.5 676 L 1172.5 681" fill="none" stroke="#B9B8CE" stroke-width="1" paint-order="fill" stroke-opacity="1" stroke-dasharray="none" stroke-linecap="butt" stroke-miterlimit="10"></path><path d="M 1202.5 676 L 1202.5 681" fill="none" stroke="#B9B8CE" stroke-width="1" paint-order="fill" stroke-opacity="1" stroke-dasharray="none" stroke-linecap="butt" stroke-miterlimit="10"></path><path d="M 1232.5 676 L 1232.5 681" fill="none" stroke="#B9B8CE" stroke-width="1" paint-order="fill" stroke-opacity="1" stroke-dasharray="none" stroke-linecap="butt" stroke-miterlimit="10"></path><path d="M 1262.5 676 L 1262.5 681" fill="none" stroke="#B9B8CE" stroke-width="1" paint-order="fill" stroke-opacity="1" stroke-dasharray="none" stroke-linecap="butt" stroke-miterlimit="10"></path><path d="M 1292.5 676 L 1292.5 681" fill="none" stroke="#B9B8CE" stroke-width="1" paint-order="fill" stroke-opacity="1" stroke-dasharray="none" stroke-linecap="butt" stroke-miterlimit="10"></path><path d="M 1322.5 676 L 1322.5 681" fill="none" stroke="#B9B8CE" stroke-width="1" paint-order="fill" stroke-opacity="1" stroke-dasharray="none" stroke-linecap="butt" stroke-miterlimit="10"></path><path d="M 1352.5 676 L 1352.5 681" fill="none" stroke="#B9B8CE" stroke-width="1" paint-order="fill" stroke-opacity="1" stroke-dasharray="none" stroke-linecap="butt" stroke-miterlimit="10"></path><path d="M 1382.5 676 L 1382.5 681" fill="none" stroke="#B9B8CE" stroke-width="1" paint-order="fill" stroke-opacity="1" stroke-dasharray="none" stroke-linecap="butt" stroke-miterlimit="10"></path><text xml:space="preserve" fill="#B9B8CE" fill-opacity="1" stroke="none" transform="matrix(1,0,0,1,145.6,676)" dominant-baseline="central" text-anchor="end" x="0" y="0" style="font: 12px &quot;Microsoft YaHei&quot;;">0</text><text xml:space="preserve" fill="#B9B8CE" fill-opacity="1" stroke="none" transform="matrix(1,0,0,1,145.6,522)" dominant-baseline="central" text-anchor="end" x="0" y="0" style="font: 12px &quot;Microsoft YaHei&quot;;">10</text><text xml:space="preserve" fill="#B9B8CE" fill-opacity="1" stroke="none" transform="matrix(1,0,0,1,145.6,368)" dominant-baseline="central" text-anchor="end" x="0" y="0" style="font: 12px &quot;Microsoft YaHei&quot;;">20</text><text xml:space="preserve" fill="#B9B8CE" fill-opacity="1" stroke="none" transform="matrix(1,0,0,1,145.6,214)" dominant-baseline="central" text-anchor="end" x="0" y="0" style="font: 12px &quot;Microsoft YaHei&quot;;">30</text><text xml:space="preserve" fill="#B9B8CE" fill-opacity="1" stroke="none" transform="matrix(1,0,0,1,145.6,60)" dominant-baseline="central" text-anchor="end" x="0" y="0" style="font: 12px &quot;Microsoft YaHei&quot;;">40</text><text xml:space="preserve" fill="#fff" fill-opacity="1" stroke="none" transform="matrix(0.766,-0.643,0.643,0.766,168.5854,684)" dominant-baseline="central" text-anchor="end" x="0" y="0" style="font: 10px &quot;Microsoft YaHei&quot;;">Pikachuwa</text><text xml:space="preserve" fill="#fff" fill-opacity="1" stroke="none" transform="matrix(0.766,-0.643,0.643,0.766,198.5561,684)" dominant-baseline="central" text-anchor="end" x="0" y="0" style="font: 10px &quot;Microsoft YaHei&quot;;">Darren</text><text xml:space="preserve" fill="#fff" fill-opacity="1" stroke="none" transform="matrix(0.766,-0.643,0.643,0.766,228.5268,684)" dominant-baseline="central" text-anchor="end" x="0" y="0" style="font: 10px &quot;Microsoft YaHei&quot;;">SG4YK</text><text xml:space="preserve" fill="#fff" fill-opacity="1" stroke="none" transform="matrix(0.766,-0.643,0.643,0.766,258.4976,684)" dominant-baseline="central" text-anchor="end" x="0" y="0" style="font: 10px &quot;Microsoft YaHei&quot;;">tmlwacre</text><text xml:space="preserve" fill="#fff" fill-opacity="1" stroke="none" transform="matrix(0.766,-0.643,0.643,0.766,288.4683,684)" dominant-baseline="central" text-anchor="end" x="0" y="0" style="font: 10px &quot;Microsoft YaHei&quot;;">FireEgg</text><text xml:space="preserve" fill="#fff" fill-opacity="1" stroke="none" transform="matrix(0.766,-0.643,0.643,0.766,318.439,684)" dominant-baseline="central" text-anchor="end" x="0" y="0" style="font: 10px &quot;Microsoft YaHei&quot;;">jybuchiyu</text><text xml:space="preserve" fill="#fff" fill-opacity="1" stroke="none" transform="matrix(0.766,-0.643,0.643,0.766,348.4098,684)" dominant-baseline="central" text-anchor="end" x="0" y="0" style="font: 10px &quot;Microsoft YaHei&quot;;">gmaster</text><text xml:space="preserve" fill="#fff" fill-opacity="1" stroke="none" transform="matrix(0.766,-0.643,0.643,0.766,378.3805,684)" dominant-baseline="central" text-anchor="end" x="0" y="0" style="font: 10px &quot;Microsoft YaHei&quot;;">yansixing</text><text xml:space="preserve" fill="#fff" fill-opacity="1" stroke="none" transform="matrix(0.766,-0.643,0.643,0.766,408.3512,684)" dominant-baseline="central" text-anchor="end" x="0" y="0" style="font: 10px &quot;Microsoft YaHei&quot;;">Pop_Slime</text><text xml:space="preserve" fill="#fff" fill-opacity="1" stroke="none" transform="matrix(0.766,-0.643,0.643,0.766,438.322,684)" dominant-baseline="central" text-anchor="end" x="0" y="0" style="font: 10px &quot;Microsoft YaHei&quot;;">harrynull</text><text xml:space="preserve" fill="#fff" fill-opacity="1" stroke="none" transform="matrix(0.766,-0.643,0.643,0.766,468.2927,684)" dominant-baseline="central" text-anchor="end" x="0" y="0" style="font: 10px &quot;Microsoft YaHei&quot;;">ly55341266</text><text xml:space="preserve" fill="#fff" fill-opacity="1" stroke="none" transform="matrix(0.766,-0.643,0.643,0.766,498.2634,684)" dominant-baseline="central" text-anchor="end" x="0" y="0" style="font: 10px &quot;Microsoft YaHei&quot;;">anfrsmLena</text><text xml:space="preserve" fill="#fff" fill-opacity="1" stroke="none" transform="matrix(0.766,-0.643,0.643,0.766,528.2341,684)" dominant-baseline="central" text-anchor="end" x="0" y="0" style="font: 10px &quot;Microsoft YaHei&quot;;">konodioda</text><text xml:space="preserve" fill="#fff" fill-opacity="1" stroke="none" transform="matrix(0.766,-0.643,0.643,0.766,558.2049,684)" dominant-baseline="central" text-anchor="end" x="0" y="0" style="font: 10px &quot;Microsoft YaHei&quot;;">Jackieqian</text><text xml:space="preserve" fill="#fff" fill-opacity="1" stroke="none" transform="matrix(0.766,-0.643,0.643,0.766,588.1756,684)" dominant-baseline="central" text-anchor="end" x="0" y="0" style="font: 10px &quot;Microsoft YaHei&quot;;">Csome</text><text xml:space="preserve" fill="#fff" fill-opacity="1" stroke="none" transform="matrix(0.766,-0.643,0.643,0.766,618.1463,684)" dominant-baseline="central" text-anchor="end" x="0" y="0" style="font: 10px &quot;Microsoft YaHei&quot;;">x_17</text><text xml:space="preserve" fill="#fff" fill-opacity="1" stroke="none" transform="matrix(0.766,-0.643,0.643,0.766,648.1171,684)" dominant-baseline="central" text-anchor="end" x="0" y="0" style="font: 10px &quot;Microsoft YaHei&quot;;">Mokkk</text><text xml:space="preserve" fill="#fff" fill-opacity="1" stroke="none" transform="matrix(0.766,-0.643,0.643,0.766,678.0878,684)" dominant-baseline="central" text-anchor="end" x="0" y="0" style="font: 10px &quot;Microsoft YaHei&quot;;">zmx0142857</text><text xml:space="preserve" fill="#fff" fill-opacity="1" stroke="none" transform="matrix(0.766,-0.643,0.643,0.766,708.0585,684)" dominant-baseline="central" text-anchor="end" x="0" y="0" style="font: 10px &quot;Microsoft YaHei&quot;;">metaphy</text><text xml:space="preserve" fill="#fff" fill-opacity="1" stroke="none" transform="matrix(0.766,-0.643,0.643,0.766,738.0293,684)" dominant-baseline="central" text-anchor="end" x="0" y="0" style="font: 10px &quot;Microsoft YaHei&quot;;">zrl975</text><text xml:space="preserve" fill="#fff" fill-opacity="1" stroke="none" transform="matrix(0.766,-0.643,0.643,0.766,768,684)" dominant-baseline="central" text-anchor="end" x="0" y="0" style="font: 10px &quot;Microsoft YaHei&quot;;">chendong</text><text xml:space="preserve" fill="#fff" fill-opacity="1" stroke="none" transform="matrix(0.766,-0.643,0.643,0.766,797.9707,684)" dominant-baseline="central" text-anchor="end" x="0" y="0" style="font: 10px &quot;Microsoft YaHei&quot;;">Norato</text><text xml:space="preserve" fill="#fff" fill-opacity="1" stroke="none" transform="matrix(0.766,-0.643,0.643,0.766,827.9415,684)" dominant-baseline="central" text-anchor="end" x="0" y="0" style="font: 10px &quot;Microsoft YaHei&quot;;">Price</text><text xml:space="preserve" fill="#fff" fill-opacity="1" stroke="none" transform="matrix(0.766,-0.643,0.643,0.766,857.9122,684)" dominant-baseline="central" text-anchor="end" x="0" y="0" style="font: 10px &quot;Microsoft YaHei&quot;;">Upw1nd</text><text xml:space="preserve" fill="#fff" fill-opacity="1" stroke="none" transform="matrix(0.766,-0.643,0.643,0.766,887.8829,684)" dominant-baseline="central" text-anchor="end" x="0" y="0" style="font: 10px &quot;Microsoft YaHei&quot;;">culionBear</text><text xml:space="preserve" fill="#fff" fill-opacity="1" stroke="none" transform="matrix(0.766,-0.643,0.643,0.766,917.8537,684)" dominant-baseline="central" text-anchor="end" x="0" y="0" style="font: 10px &quot;Microsoft YaHei&quot;;">no_reason</text><text xml:space="preserve" fill="#fff" fill-opacity="1" stroke="none" transform="matrix(0.766,-0.643,0.643,0.766,947.8244,684)" dominant-baseline="central" text-anchor="end" x="0" y="0" style="font: 10px &quot;Microsoft YaHei&quot;;">LLLv_da</text><text xml:space="preserve" fill="#fff" fill-opacity="1" stroke="none" transform="matrix(0.766,-0.643,0.643,0.766,977.7951,684)" dominant-baseline="central" text-anchor="end" x="0" y="0" style="font: 10px &quot;Microsoft YaHei&quot;;">frankOJ1024</text><text xml:space="preserve" fill="#fff" fill-opacity="1" stroke="none" transform="matrix(0.766,-0.643,0.643,0.766,1007.7659,684)" dominant-baseline="central" text-anchor="end" x="0" y="0" style="font: 10px &quot;Microsoft YaHei&quot;;">WHHH</text><text xml:space="preserve" fill="#fff" fill-opacity="1" stroke="none" transform="matrix(0.766,-0.643,0.643,0.766,1037.7366,684)" dominant-baseline="central" text-anchor="end" x="0" y="0" style="font: 10px &quot;Microsoft YaHei&quot;;">ashcastle</text><text xml:space="preserve" fill="#fff" fill-opacity="1" stroke="none" transform="matrix(0.766,-0.643,0.643,0.766,1067.7073,684)" dominant-baseline="central" text-anchor="end" x="0" y="0" style="font: 10px &quot;Microsoft YaHei&quot;;">linx</text><text xml:space="preserve" fill="#fff" fill-opacity="1" stroke="none" transform="matrix(0.766,-0.643,0.643,0.766,1097.678,684)" dominant-baseline="central" text-anchor="end" x="0" y="0" style="font: 10px &quot;Microsoft YaHei&quot;;">d3280</text><text xml:space="preserve" fill="#fff" fill-opacity="1" stroke="none" transform="matrix(0.766,-0.643,0.643,0.766,1127.6488,684)" dominant-baseline="central" text-anchor="end" x="0" y="0" style="font: 10px &quot;Microsoft YaHei&quot;;">Wallbreaker5th</text><text xml:space="preserve" fill="#fff" fill-opacity="1" stroke="none" transform="matrix(0.766,-0.643,0.643,0.766,1157.6195,684)" dominant-baseline="central" text-anchor="end" x="0" y="0" style="font: 10px &quot;Microsoft YaHei&quot;;">sjspm</text><text xml:space="preserve" fill="#fff" fill-opacity="1" stroke="none" transform="matrix(0.766,-0.643,0.643,0.766,1187.5902,684)" dominant-baseline="central" text-anchor="end" x="0" y="0" style="font: 10px &quot;Microsoft YaHei&quot;;">qwer</text><text xml:space="preserve" fill="#fff" fill-opacity="1" stroke="none" transform="matrix(0.766,-0.643,0.643,0.766,1217.561,684)" dominant-baseline="central" text-anchor="end" x="0" y="0" style="font: 10px &quot;Microsoft YaHei&quot;;">Chordfish</text><text xml:space="preserve" fill="#fff" fill-opacity="1" stroke="none" transform="matrix(0.766,-0.643,0.643,0.766,1247.5317,684)" dominant-baseline="central" text-anchor="end" x="0" y="0" style="font: 10px &quot;Microsoft YaHei&quot;;">Ephemerally</text><text xml:space="preserve" fill="#fff" fill-opacity="1" stroke="none" transform="matrix(0.766,-0.643,0.643,0.766,1277.5024,684)" dominant-baseline="central" text-anchor="end" x="0" y="0" style="font: 10px &quot;Microsoft YaHei&quot;;">ice_frost</text><text xml:space="preserve" fill="#fff" fill-opacity="1" stroke="none" transform="matrix(0.766,-0.643,0.643,0.766,1307.4732,684)" dominant-baseline="central" text-anchor="end" x="0" y="0" style="font: 10px &quot;Microsoft YaHei&quot;;">cymic</text><text xml:space="preserve" fill="#fff" fill-opacity="1" stroke="none" transform="matrix(0.766,-0.643,0.643,0.766,1337.4439,684)" dominant-baseline="central" text-anchor="end" x="0" y="0" style="font: 10px &quot;Microsoft YaHei&quot;;">goodnightsion</text><text xml:space="preserve" fill="#fff" fill-opacity="1" stroke="none" transform="matrix(0.766,-0.643,0.643,0.766,1367.4146,684)" dominant-baseline="central" text-anchor="end" x="0" y="0" style="font: 10px &quot;Microsoft YaHei&quot;;">1zero</text><path d="M 158.2455 676 L 178.9253 676 L 178.9253 337.2 L 158.2455 337.2 L 158.2455 676 Z" fill="rgb(124,255,178)" fill-opacity="1" stroke="none"></path><path d="M 188.2162 676 L 208.896 676 L 208.896 398.8 L 188.2162 398.8 L 188.2162 676 Z" fill="rgb(124,255,178)" fill-opacity="1" stroke="none"></path><path d="M 218.1869 676 L 238.8667 676 L 238.8667 506.6 L 218.1869 506.6 L 218.1869 676 Z" fill="rgb(124,255,178)" fill-opacity="1" stroke="none"></path><path d="M 248.1577 676 L 268.8375 676 L 268.8375 537.4 L 248.1577 537.4 L 248.1577 676 Z" fill="rgb(124,255,178)" fill-opacity="1" stroke="none"></path><path d="M 278.1284 676 L 298.8082 676 L 298.8082 475.8 L 278.1284 475.8 L 278.1284 676 Z" fill="rgb(124,255,178)" fill-opacity="1" stroke="none"></path><path d="M 308.0991 676 L 328.7789 676 L 328.7789 506.6 L 308.0991 506.6 L 308.0991 676 Z" fill="rgb(124,255,178)" fill-opacity="1" stroke="none"></path><path d="M 338.0699 676 L 358.7497 676 L 358.7497 522 L 338.0699 522 L 338.0699 676 Z" fill="rgb(124,255,178)" fill-opacity="1" stroke="none"></path><path d="M 368.0406 676 L 388.7204 676 L 388.7204 522 L 368.0406 522 L 368.0406 676 Z" fill="rgb(124,255,178)" fill-opacity="1" stroke="none"></path><path d="M 398.0113 676 L 418.6911 676 L 418.6911 337.2 L 398.0113 337.2 L 398.0113 676 Z" fill="rgb(124,255,178)" fill-opacity="1" stroke="none"></path><path d="M 427.982 676 L 448.6619 676 L 448.6619 506.6 L 427.982 506.6 L 427.982 676 Z" fill="rgb(124,255,178)" fill-opacity="1" stroke="none"></path><path d="M 457.9528 676 L 478.6326 676 L 478.6326 352.6 L 457.9528 352.6 L 457.9528 676 Z" fill="rgb(124,255,178)" fill-opacity="1" stroke="none"></path><path d="M 487.9235 676 L 508.6033 676 L 508.6033 522 L 487.9235 522 L 487.9235 676 Z" fill="rgb(124,255,178)" fill-opacity="1" stroke="none"></path><path d="M 517.8942 676 L 538.574 676 L 538.574 398.8 L 517.8942 398.8 L 517.8942 676 Z" fill="rgb(124,255,178)" fill-opacity="1" stroke="none"></path><path d="M 547.865 676 L 568.5448 676 L 568.5448 506.6 L 547.865 506.6 L 547.865 676 Z" fill="rgb(124,255,178)" fill-opacity="1" stroke="none"></path><path d="M 577.8357 676 L 598.5155 676 L 598.5155 475.8 L 577.8357 475.8 L 577.8357 676 Z" fill="rgb(124,255,178)" fill-opacity="1" stroke="none"></path><path d="M 607.8064 676 L 628.4862 676 L 628.4862 491.2 L 607.8064 491.2 L 607.8064 676 Z" fill="rgb(124,255,178)" fill-opacity="1" stroke="none"></path><path d="M 637.7772 676 L 658.457 676 L 658.457 522 L 637.7772 522 L 637.7772 676 Z" fill="rgb(124,255,178)" fill-opacity="1" stroke="none"></path><path d="M 667.7479 676 L 688.4277 676 L 688.4277 506.6 L 667.7479 506.6 L 667.7479 676 Z" fill="rgb(124,255,178)" fill-opacity="1" stroke="none"></path><path d="M 697.7186 676 L 718.3984 676 L 718.3984 383.4 L 697.7186 383.4 L 697.7186 676 Z" fill="#7cffb2" fill-opacity="1" stroke="none"></path><path d="M 727.6894 676 L 748.3692 676 L 748.3692 398.8 L 727.6894 398.8 L 727.6894 676 Z" fill="rgb(124,255,178)" fill-opacity="1" stroke="none"></path><path d="M 757.6601 676 L 778.3399 676 L 778.3399 460.4 L 757.6601 460.4 L 757.6601 676 Z" fill="#7cffb2" fill-opacity="1" stroke="none"></path><path d="M 787.6308 676 L 808.3106 676 L 808.3106 445 L 787.6308 445 L 787.6308 676 Z" fill="rgb(124,255,178)" fill-opacity="1" stroke="none"></path><path d="M 817.6016 676 L 838.2814 676 L 838.2814 321.8 L 817.6016 321.8 L 817.6016 676 Z" fill="rgb(124,255,178)" fill-opacity="1" stroke="none"></path><path d="M 847.5723 676 L 868.2521 676 L 868.2521 506.6 L 847.5723 506.6 L 847.5723 676 Z" fill="rgb(124,255,178)" fill-opacity="1" stroke="none"></path><path d="M 877.543 676 L 898.2228 676 L 898.2228 522 L 877.543 522 L 877.543 676 Z" fill="#7cffb2" fill-opacity="1" stroke="none"></path><path d="M 907.5138 676 L 928.1936 676 L 928.1936 383.4 L 907.5138 383.4 L 907.5138 676 Z" fill="rgb(124,255,178)" fill-opacity="1" stroke="none"></path><path d="M 937.4845 676 L 958.1643 676 L 958.1643 414.2 L 937.4845 414.2 L 937.4845 676 Z" fill="#7cffb2" fill-opacity="1" stroke="none"></path><path d="M 967.4552 676 L 988.135 676 L 988.135 491.2 L 967.4552 491.2 L 967.4552 676 Z" fill="#7cffb2" fill-opacity="1" stroke="none"></path><path d="M 997.426 676 L 1018.1058 676 L 1018.1058 506.6 L 997.426 506.6 L 997.426 676 Z" fill="rgb(124,255,178)" fill-opacity="1" stroke="none"></path><path d="M 1027.3967 676 L 1048.0765 676 L 1048.0765 429.6 L 1027.3967 429.6 L 1027.3967 676 Z" fill="rgb(124,255,178)" fill-opacity="1" stroke="none"></path><path d="M 1057.3674 676 L 1078.0472 676 L 1078.0472 537.4 L 1057.3674 537.4 L 1057.3674 676 Z" fill="rgb(124,255,178)" fill-opacity="1" stroke="none"></path><path d="M 1087.3381 676 L 1108.018 676 L 1108.018 506.6 L 1087.3381 506.6 L 1087.3381 676 Z" fill="rgb(124,255,178)" fill-opacity="1" stroke="none"></path><path d="M 1117.3089 676 L 1137.9887 676 L 1137.9887 414.2 L 1117.3089 414.2 L 1117.3089 676 Z" fill="rgb(124,255,178)" fill-opacity="1" stroke="none"></path><path d="M 1147.2796 676 L 1167.9594 676 L 1167.9594 506.6 L 1147.2796 506.6 L 1147.2796 676 Z" fill="rgb(124,255,178)" fill-opacity="1" stroke="none"></path><path d="M 1177.2503 676 L 1197.9301 676 L 1197.9301 337.2 L 1177.2503 337.2 L 1177.2503 676 Z" fill="rgb(124,255,178)" fill-opacity="1" stroke="none"></path><path d="M 1207.2211 676 L 1227.9009 676 L 1227.9009 414.2 L 1207.2211 414.2 L 1207.2211 676 Z" fill="rgb(124,255,178)" fill-opacity="1" stroke="none"></path><path d="M 1237.1918 676 L 1257.8716 676 L 1257.8716 506.6 L 1237.1918 506.6 L 1237.1918 676 Z" fill="rgb(124,255,178)" fill-opacity="1" stroke="none"></path><path d="M 1267.1625 676 L 1287.8423 676 L 1287.8423 537.4 L 1267.1625 537.4 L 1267.1625 676 Z" fill="rgb(124,255,178)" fill-opacity="1" stroke="none"></path><path d="M 1297.1333 676 L 1317.8131 676 L 1317.8131 414.2 L 1297.1333 414.2 L 1297.1333 676 Z" fill="rgb(124,255,178)" fill-opacity="1" stroke="none"></path><path d="M 1327.104 676 L 1347.7838 676 L 1347.7838 445 L 1327.104 445 L 1327.104 676 Z" fill="#7cffb2" fill-opacity="1" stroke="none"></path><path d="M 1357.0747 676 L 1377.7545 676 L 1377.7545 522 L 1357.0747 522 L 1357.0747 676 Z" fill="#7cffb2" fill-opacity="1" stroke="none"></path><g clip-path="url(#zr2323-clip-0)"><path d="M 168.5854 282.0175 L 198.5561 282.0175 L 228.5268 190.8495 L 258.4976 190.8495 L 288.4683 185.7207 L 318.439 185.7207 L 348.4098 184.689 L 378.3805 184.689 L 408.3512 182.2446 L 438.322 182.2446 L 468.2927 179.8255 L 498.2634 179.8255 L 528.2341 179.7146 L 558.2049 179.7146 L 588.1756 176.0967 L 618.1464 176.0967 L 648.1171 175.5451 L 678.0878 173.7725 L 708.0585 172.5076 L 738.0293 172.5076 L 768 170.0257 L 797.9707 169.8371 L 827.9415 166.2731 L 857.9122 165.6184 L 887.8829 165.6184 L 917.8536 164.5118 L 947.8244 159.2484 L 977.7951 155.29 L 1007.7659 155.29 L 1037.7366 152.8865 L 1067.7073 152.5348 L 1097.6781 150.6636 L 1127.6488 149.5328 L 1157.6195 145.7824 L 1187.5902 141.0416 L 1217.561 140.7501 L 1247.5317 137.9137 L 1277.5024 134.8858 L 1307.4731 133.2041 L 1337.4438 132.9125 L 1367.4147 121.1226" fill="none" stroke="rgb(73,146,255)" stroke-width="2" paint-order="fill" stroke-opacity="1" stroke-dasharray="none" stroke-linecap="butt" stroke-linejoin="bevel" stroke-miterlimit="10"></path></g><path d="M 1 0 A 1 1 0 1 1 1 -0.0001" fill="rgb(73,146,255)" fill-opacity="1" stroke="none" transform="matrix(2,0,0,2,168.5854,282.0175)"></path><path d="M 1 0 A 1 1 0 1 1 1 -0.0001" fill="rgb(73,146,255)" fill-opacity="1" stroke="none" transform="matrix(2,0,0,2,198.5561,282.0175)"></path><path d="M 1 0 A 1 1 0 1 1 1 -0.0001" fill="rgb(73,146,255)" fill-opacity="1" stroke="none" transform="matrix(2,0,0,2,228.5268,190.8495)"></path><path d="M 1 0 A 1 1 0 1 1 1 -0.0001" fill="rgb(73,146,255)" fill-opacity="1" stroke="none" transform="matrix(2,0,0,2,258.4976,190.8495)"></path><path d="M 1 0 A 1 1 0 1 1 1 -0.0001" fill="rgb(73,146,255)" fill-opacity="1" stroke="none" transform="matrix(2,0,0,2,288.4683,185.7207)"></path><path d="M 1 0 A 1 1 0 1 1 1 -0.0001" fill="rgb(73,146,255)" fill-opacity="1" stroke="none" transform="matrix(2,0,0,2,318.439,185.7207)"></path><path d="M 1 0 A 1 1 0 1 1 1 -0.0001" fill="rgb(73,146,255)" fill-opacity="1" stroke="none" transform="matrix(2,0,0,2,348.4098,184.689)"></path><path d="M 1 0 A 1 1 0 1 1 1 -0.0001" fill="rgb(73,146,255)" fill-opacity="1" stroke="none" transform="matrix(2,0,0,2,378.3805,184.689)"></path><path d="M 1 0 A 1 1 0 1 1 1 -0.0001" fill="rgb(73,146,255)" fill-opacity="1" stroke="none" transform="matrix(2,0,0,2,408.3512,182.2446)"></path><path d="M 1 0 A 1 1 0 1 1 1 -0.0001" fill="rgb(73,146,255)" fill-opacity="1" stroke="none" transform="matrix(2,0,0,2,438.322,182.2446)"></path><path d="M 1 0 A 1 1 0 1 1 1 -0.0001" fill="rgb(73,146,255)" fill-opacity="1" stroke="none" transform="matrix(2,0,0,2,468.2927,179.8255)"></path><path d="M 1 0 A 1 1 0 1 1 1 -0.0001" fill="rgb(73,146,255)" fill-opacity="1" stroke="none" transform="matrix(2,0,0,2,498.2634,179.8255)"></path><path d="M 1 0 A 1 1 0 1 1 1 -0.0001" fill="rgb(73,146,255)" fill-opacity="1" stroke="none" transform="matrix(2,0,0,2,528.2341,179.7146)"></path><path d="M 1 0 A 1 1 0 1 1 1 -0.0001" fill="rgb(73,146,255)" fill-opacity="1" stroke="none" transform="matrix(2,0,0,2,558.2049,179.7146)"></path><path d="M 1 0 A 1 1 0 1 1 1 -0.0001" fill="rgb(73,146,255)" fill-opacity="1" stroke="none" transform="matrix(2,0,0,2,588.1756,176.0967)"></path><path d="M 1 0 A 1 1 0 1 1 1 -0.0001" fill="rgb(73,146,255)" fill-opacity="1" stroke="none" transform="matrix(2,0,0,2,618.1464,176.0967)"></path><path d="M 1 0 A 1 1 0 1 1 1 -0.0001" fill="rgb(73,146,255)" fill-opacity="1" stroke="none" transform="matrix(2,0,0,2,648.1171,175.5451)"></path><path d="M 1 0 A 1 1 0 1 1 1 -0.0001" fill="rgb(73,146,255)" fill-opacity="1" stroke="none" transform="matrix(2,0,0,2,678.0878,173.7725)"></path><path d="M 1 0 A 1 1 0 1 1 1 -0.0001" fill="#4992ff" fill-opacity="1" stroke="none" transform="matrix(2,0,0,2,708.0585,172.5076)"></path><path d="M 1 0 A 1 1 0 1 1 1 -0.0001" fill="rgb(73,146,255)" fill-opacity="1" stroke="none" transform="matrix(2,0,0,2,738.0293,172.5076)"></path><path d="M 1 0 A 1 1 0 1 1 1 -0.0001" fill="#4992ff" fill-opacity="1" stroke="none" transform="matrix(2,0,0,2,768,170.0257)"></path><path d="M 1 0 A 1 1 0 1 1 1 -0.0001" fill="rgb(73,146,255)" fill-opacity="1" stroke="none" transform="matrix(2,0,0,2,797.9707,169.8371)"></path><path d="M 1 0 A 1 1 0 1 1 1 -0.0001" fill="rgb(73,146,255)" fill-opacity="1" stroke="none" transform="matrix(2,0,0,2,827.9415,166.2731)"></path><path d="M 1 0 A 1 1 0 1 1 1 -0.0001" fill="rgb(73,146,255)" fill-opacity="1" stroke="none" transform="matrix(2,0,0,2,857.9122,165.6184)"></path><path d="M 1 0 A 1 1 0 1 1 1 -0.0001" fill="#4992ff" fill-opacity="1" stroke="none" transform="matrix(2,0,0,2,887.8829,165.6184)"></path><path d="M 1 0 A 1 1 0 1 1 1 -0.0001" fill="rgb(73,146,255)" fill-opacity="1" stroke="none" transform="matrix(2,0,0,2,917.8536,164.5118)"></path><path d="M 1 0 A 1 1 0 1 1 1 -0.0001" fill="#4992ff" fill-opacity="1" stroke="none" transform="matrix(2,0,0,2,947.8244,159.2484)"></path><path d="M 1 0 A 1 1 0 1 1 1 -0.0001" fill="#4992ff" fill-opacity="1" stroke="none" transform="matrix(2,0,0,2,977.7951,155.29)"></path><path d="M 1 0 A 1 1 0 1 1 1 -0.0001" fill="rgb(73,146,255)" fill-opacity="1" stroke="none" transform="matrix(2,0,0,2,1007.7659,155.29)"></path><path d="M 1 0 A 1 1 0 1 1 1 -0.0001" fill="rgb(73,146,255)" fill-opacity="1" stroke="none" transform="matrix(2,0,0,2,1037.7366,152.8865)"></path><path d="M 1 0 A 1 1 0 1 1 1 -0.0001" fill="rgb(73,146,255)" fill-opacity="1" stroke="none" transform="matrix(2,0,0,2,1067.7073,152.5348)"></path><path d="M 1 0 A 1 1 0 1 1 1 -0.0001" fill="rgb(73,146,255)" fill-opacity="1" stroke="none" transform="matrix(2,0,0,2,1097.6781,150.6636)"></path><path d="M 1 0 A 1 1 0 1 1 1 -0.0001" fill="rgb(73,146,255)" fill-opacity="1" stroke="none" transform="matrix(2,0,0,2,1127.6488,149.5328)"></path><path d="M 1 0 A 1 1 0 1 1 1 -0.0001" fill="rgb(73,146,255)" fill-opacity="1" stroke="none" transform="matrix(2,0,0,2,1157.6195,145.7824)"></path><path d="M 1 0 A 1 1 0 1 1 1 -0.0001" fill="rgb(73,146,255)" fill-opacity="1" stroke="none" transform="matrix(2,0,0,2,1187.5902,141.0416)"></path><path d="M 1 0 A 1 1 0 1 1 1 -0.0001" fill="rgb(73,146,255)" fill-opacity="1" stroke="none" transform="matrix(2,0,0,2,1217.561,140.7501)"></path><path d="M 1 0 A 1 1 0 1 1 1 -0.0001" fill="rgb(73,146,255)" fill-opacity="1" stroke="none" transform="matrix(2,0,0,2,1247.5317,137.9137)"></path><path d="M 1 0 A 1 1 0 1 1 1 -0.0001" fill="rgb(73,146,255)" fill-opacity="1" stroke="none" transform="matrix(2,0,0,2,1277.5024,134.8858)"></path><path d="M 1 0 A 1 1 0 1 1 1 -0.0001" fill="rgb(73,146,255)" fill-opacity="1" stroke="none" transform="matrix(2,0,0,2,1307.4731,133.2041)"></path><path d="M 1 0 A 1 1 0 1 1 1 -0.0001" fill="#4992ff" fill-opacity="1" stroke="none" transform="matrix(2,0,0,2,1337.4438,132.9125)"></path><path d="M 1 0 A 1 1 0 1 1 1 -0.0001" fill="#4992ff" fill-opacity="1" stroke="none" transform="matrix(2,0,0,2,1367.4147,121.1226)"></path><path d="M -264.1279 -5 L 264.1279 -5 L 264.1279 23 L -264.1279 23 L -264.1279 -5 Z" fill="rgb(0,0,0)" fill-opacity="0" stroke="#ccc" stroke-width="0" paint-order="fill" stroke-opacity="1" stroke-dasharray="none" stroke-linecap="butt" stroke-miterlimit="10" transform="matrix(1,0,0,1,768,5)"></path><text xml:space="preserve" fill="#EEF1FA" fill-opacity="1" stroke="none" transform="matrix(1,0,0,1,768,5)" dominant-baseline="central" text-anchor="middle" x="0" y="9" style="font: bold 18px &quot;Microsoft YaHei&quot;;">100% Tue Oct 26 2021 23:58:42 GMT+0800 (中国标准时间)</text></g></svg>